<?xml version="1.0" encoding="UTF-8"?>
<!DOCTYPE svg PUBLIC "-//W3C//DTD SVG 1.1//EN" "http://www.w3.org/Graphics/SVG/1.1/DTD/svg11.dtd">
<!-- Creator: CorelDRAW 2019 (64-Bit) -->
<svg xmlns="http://www.w3.org/2000/svg" xml:space="preserve" width="144.834mm" height="144.835mm" version="1.1" style="shape-rendering:geometricPrecision; text-rendering:geometricPrecision; image-rendering:optimizeQuality; fill-rule:evenodd; clip-rule:evenodd"
viewBox="0 0 628.03 628.03"
 xmlns:xlink="http://www.w3.org/1999/xlink"
 xmlns:xodm="http://www.corel.com/coreldraw/odm/2003">
 <defs>
  <style type="text/css">
   <![CDATA[
    .fil6 {fill:#282828;fill-rule:nonzero}
    .fil13 {fill:#313131;fill-rule:nonzero}
    .fil7 {fill:#3B3B3D;fill-rule:nonzero}
    .fil1 {fill:#465E6E;fill-rule:nonzero}
    .fil0 {fill:#4FB3DD;fill-rule:nonzero}
    .fil12 {fill:#854242;fill-rule:nonzero}
    .fil9 {fill:#CDCFD1;fill-rule:nonzero}
    .fil10 {fill:#D1505D;fill-rule:nonzero}
    .fil3 {fill:#DB4F5D;fill-rule:nonzero}
    .fil5 {fill:#DFA389;fill-rule:nonzero}
    .fil2 {fill:#E2E2E2;fill-rule:nonzero}
    .fil4 {fill:#EDBFAA;fill-rule:nonzero}
    .fil8 {fill:#EFEFEF;fill-rule:nonzero}
    .fil11 {fill:#F2C3AE;fill-rule:nonzero}
   ]]>
  </style>
 </defs>
 <g id="Layer_x0020_1">
  <metadata id="CorelCorpID_0Corel-Layer"/>
  <g id="_2510574609904">
   <path class="fil0" d="M591.91 314.01c0,-153.23 -124.66,-277.9 -277.9,-277.9 -153.23,0 -277.9,124.66 -277.9,277.9 0,153.23 124.66,277.9 277.9,277.9 153.23,0 277.9,-124.66 277.9,-277.9z"/>
   <path class="fil1" d="M314.01 0l-0 0c-173.42,0 -314.01,140.59 -314.01,314.01l0 0c0,173.43 140.59,314.01 314.01,314.01l0 0c173.42,0 314.01,-140.59 314.01,-314.01l0 -0c0,-173.42 -140.59,-314.01 -314.01,-314.01zm-277.9 314.01l0 0c0,-153.23 124.67,-277.9 277.9,-277.9 153.23,0 277.9,124.66 277.9,277.9 0,153.23 -124.66,277.9 -277.9,277.9 -153.23,0 -277.9,-124.66 -277.9,-277.9z"/>
   <path class="fil2" d="M386.84 549.99l-16.05 49.18 -33.77 -49.18 8.33 12.13 -20.46 28.03 7.53 36.62 9.65 0c6.91,-0.61 13.76,-1.43 20.53,-2.48l24.25 -74.3z"/>
   <path class="fil2" d="M282.68 561.67l8.02 -11.68 -33.77 49.18 -16.05 -49.18 24.23 74.24c6.88,1.08 13.84,1.91 20.86,2.54l5.05 0 10.53 -36.62c-6.29,-9.49 -12.58,-18.99 -18.87,-28.48z"/>
   <path class="fil3" d="M313.35 587.39c-5.54,-0.03 -9.72,1.72 -11.79,2.76l-10.53 36.62 41.38 0 -7.53 -36.62c-2.06,-1.03 -6.13,-2.73 -11.54,-2.76z"/>
   <path class="fil4" d="M250.8 491.74l47.37 47.37 31.38 0 47.4 -47.4 -0.03 0.03 -0.91 -6.92 -7.24 -53.43 -0.03 0 3.97 29.07c-7.85,10.26 -45.07,31.12 -61,31.28 -15.36,0.15 -54.98,-26.73 -57.77,-28.64l-2.38 21.71 -0.76 6.93z"/>
   <polygon class="fil4" points="336.19,548.79 329.55,539.11 "/>
   <polygon class="fil4" points="298.17,539.11 292.9,546.79 "/>
   <polygon class="fil4" points="290.01,437.89 256.41,440.67 254.55,457.64 256.66,442.92 "/>
   <path class="fil5" d="M372.71 460.46l-3.97 -29.07 -0.72 -5.27 -78.01 11.77 -33.35 5.03 -2.12 14.71 -0.77 5.35c0,0 0.07,0.05 0.17,0.11 2.79,1.91 42.41,28.79 57.77,28.64 15.93,-0.16 53.15,-21.02 61,-31.28z"/>
   <path class="fil6" d="M228.32 597.17l-45.15 -19.56 21.58 -64.75 -105.15 30.54c28.38,26.54 61.69,47.88 98.41,62.49l30.31 -8.73z"/>
   <path class="fil7" d="M226.82 506.88l17.06 -22.07 -37.12 22.07 -1.99 5.98 -21.58 64.75 45.15 19.56 -30.31 8.73c21.32,8.48 43.78,14.69 67.1,18.33l-24.23 -74.24 -14.07 -43.11z"/>
   <polygon class="fil8" points="240.89,549.99 256.94,599.17 290.7,549.99 292.9,546.79 298.17,539.11 250.8,491.74 243.87,484.81 226.82,506.88 "/>
   <polygon class="fil9" points="250.8,491.74 251.56,484.81 243.87,484.81 "/>
   <path class="fil6" d="M528.35 543.48l-105.39 -30.61 21.58 64.75 -45.15 19.56 30.49 8.78c36.74,-14.6 70.06,-35.93 98.46,-62.47z"/>
   <path class="fil7" d="M399.4 597.17l45.15 -19.56 -21.58 -64.75 -1.99 -5.98 -37.12 -22.07 17.06 22.07 -14.07 43.11 -24.25 74.3c23.39,-3.63 45.92,-9.84 67.3,-18.34l-30.49 -8.78z"/>
   <polygon class="fil8" points="329.55,539.11 336.19,548.79 337.02,549.99 370.78,599.17 386.84,549.99 400.9,506.88 383.85,484.81 376.95,491.71 "/>
   <polygon class="fil9" points="376.95,491.71 383.85,484.81 376.01,484.81 376.01,484.82 376.92,491.74 "/>
   <path class="fil10" d="M329.55 539.11l-31.38 0 -5.27 7.68 -2.2 3.2 -8.02 11.68c6.29,9.49 12.58,18.99 18.87,28.48 2.06,-1.04 6.25,-2.79 11.79,-2.76 5.4,0.03 9.48,1.73 11.54,2.76l20.46 -28.03 -8.33 -12.13 -0.82 -1.2 -6.64 -9.68z"/>
   <path class="fil11" d="M413.29 291.18c0,0 7.15,-140.45 -106.72,-139.95 -113.87,-0.5 -106.72,139.95 -106.72,139.95 -13.17,-0.75 -27.84,-1.13 -24.83,34.61 3.01,35.74 36.24,39.13 36.24,39.13 2.01,36.12 25.08,71.23 42.14,86.28 17.06,15.05 53.17,15.05 53.17,15.05 0,0 36.12,0 53.17,-15.05 17.06,-15.05 40.13,-50.16 42.14,-86.28 0,0 33.23,-3.39 36.24,-39.13 3.01,-35.74 -11.66,-35.36 -24.83,-34.61z"/>
   <path class="fil12" d="M186.04 198.63c17.03,-58.19 122.67,-99.76 187.89,-53.19 2.02,-9.19 7.36,-12.4 19.4,-15.28 -6.26,6.92 -9.53,10.28 -8.28,15.93 5.24,-6.5 12.57,-5.25 20.82,-4.39 -8.95,1.83 -14.17,6.65 -16.28,12.41 15.36,2.38 53.65,28.97 46.72,70.34 -11.65,69.46 -13.54,66.74 -13.54,66.74 0,0 -10.53,8.28 -15.05,30.85 0,0 -5.27,-63.96 -7.52,-73.74 -2.26,-9.78 -21.82,-39.13 -21.82,-39.13 0,0 -64.29,50.65 -116.21,43.13 0,0 17.56,-11.79 7.65,-29.22 -6.58,9.22 -14.87,27.97 -37.75,26.96 8.15,-6.02 8.9,-13.04 6.02,-22.32 -4.89,9.78 -24.98,22.17 -26.75,20.58l-4.51 66.21c0,0 -5.43,-23.99 -20.77,-22.42 0,0 -7.75,-66.98 0,-93.47z"/>
   <path class="fil13" d="M325.94 290.74c-6.11,2.01 -13.32,4.88 -19.45,4.88 -6.13,0 -13.34,-2.86 -19.45,-4.88 -15.31,-5.05 -52.27,-8.43 -78.51,-2.13 -3.34,0.8 -5.64,3.87 -5.45,7.31l0.19 3.41c0.14,2.56 1.69,4.76 3.94,5.99 1.07,0.59 2.11,1.67 2.7,3.64 1.58,5.26 5.24,26.92 11.94,35.39 8.32,10.51 26.22,10.92 38.33,10.4 16.3,-0.7 26.98,-7.94 31.53,-20.21 4.56,-12.26 7.13,-22.78 10.04,-26.1 1.57,-1.8 3.35,-1.92 4.73,-1.93 1.38,0 3.16,0.13 4.73,1.93 2.92,3.33 5.49,13.84 10.04,26.1 4.55,12.26 15.23,19.5 31.53,20.21 12.11,0.52 30.02,0.12 38.33,-10.4 6.7,-8.47 10.36,-30.13 11.94,-35.39 0.59,-1.97 1.63,-3.05 2.7,-3.64 2.25,-1.23 3.8,-3.43 3.94,-5.99l0.19 -3.41c0.19,-3.43 -2.11,-6.5 -5.45,-7.31 -26.24,-6.3 -63.2,-2.92 -78.51,2.13zm-41.52 43.8l0 0c-4.38,8.23 -11.74,12.44 -22.78,13.84 -11.04,1.4 -24.23,-0.76 -30.89,-4.73 -5.85,-3.49 -8.7,-14.54 -10.1,-21.2 -1.4,-6.66 -3.85,-21.02 2.98,-25.75 6.83,-4.73 24.01,-5.08 35.39,-4.38 8.58,0.53 27.15,2.8 30.66,9.46 3.5,6.66 -1.71,26.1 -5.26,32.76zm107.92 -12.09l0 0c-1.4,6.66 -4.25,17.71 -10.1,21.2 -6.66,3.97 -19.86,6.13 -30.89,4.73 -11.04,-1.4 -18.4,-5.61 -22.78,-13.84 -3.54,-6.66 -8.76,-26.1 -5.26,-32.76 3.5,-6.66 22.08,-8.94 30.66,-9.46 11.38,-0.7 28.56,-0.35 35.39,4.38 6.83,4.73 4.38,19.1 2.98,25.75z"/>
  </g>
 </g>
</svg>
