<?xml version="1.0" encoding="UTF-8"?>
<!DOCTYPE svg PUBLIC "-//W3C//DTD SVG 1.1//EN" "http://www.w3.org/Graphics/SVG/1.1/DTD/svg11.dtd">
<!-- Creator: CorelDRAW 2019 (64-Bit) -->
<svg xmlns="http://www.w3.org/2000/svg" xml:space="preserve" width="144.834mm" height="144.834mm" version="1.1" style="shape-rendering:geometricPrecision; text-rendering:geometricPrecision; image-rendering:optimizeQuality; fill-rule:evenodd; clip-rule:evenodd"
viewBox="0 0 1179.87 1179.88"
 xmlns:xlink="http://www.w3.org/1999/xlink"
 xmlns:xodm="http://www.corel.com/coreldraw/odm/2003">
 <defs>
  <style type="text/css">
   <![CDATA[
    .fil5 {fill:#00AAEB;fill-rule:nonzero}
    .fil1 {fill:#465E6E;fill-rule:nonzero}
    .fil3 {fill:#854242;fill-rule:nonzero}
    .fil4 {fill:#CDCFD1;fill-rule:nonzero}
    .fil0 {fill:#DDAF5D;fill-rule:nonzero}
    .fil8 {fill:#DFA389;fill-rule:nonzero}
    .fil6 {fill:#EDBFAA;fill-rule:nonzero}
    .fil7 {fill:#EFEFEF;fill-rule:nonzero}
    .fil2 {fill:#F2C3AE;fill-rule:nonzero}
   ]]>
  </style>
 </defs>
 <g id="Layer_x0020_1">
  <metadata id="CorelCorpID_0Corel-Layer"/>
  <g id="_2513627673632">
   <path class="fil0" d="M1123.33 589.94c0,-294.12 -239.28,-533.39 -533.39,-533.39 -294.12,0 -533.39,239.28 -533.39,533.39 0,294.12 239.28,533.39 533.39,533.39 294.11,0 533.39,-239.28 533.39,-533.39z"/>
   <path class="fil1" d="M589.94 0l-0 0c-325.81,0 -589.94,264.12 -589.94,589.94l0 0c0,325.81 264.12,589.94 589.94,589.94l0 0c325.81,0 589.94,-264.12 589.94,-589.94l0 -0c0,-325.81 -264.12,-589.94 -589.94,-589.94zm-533.39 589.94l0 0c0,-294.11 239.28,-533.39 533.39,-533.39 294.11,0 533.39,239.28 533.39,533.39 0,294.11 -239.28,533.39 -533.39,533.39 -294.11,0 -533.39,-239.28 -533.39,-533.39z"/>
   <path class="fil2" d="M787.13 553.86c0,0 13.43,-263.87 -200.49,-262.93 -213.92,-0.94 -200.5,262.93 -200.5,262.93 -24.74,-1.41 -52.3,-2.12 -46.65,65.03 5.65,67.14 68.09,73.51 68.09,73.51 3.77,67.85 47.12,133.82 79.16,162.09 32.04,28.27 99.89,28.27 99.89,28.27 0,0 67.85,0 99.89,-28.27 32.04,-28.27 75.39,-94.24 79.16,-162.09 0,0 62.43,-6.36 68.09,-73.51 5.66,-67.15 -21.91,-66.44 -46.65,-65.03z"/>
   <path class="fil3" d="M863.49 364.44c0,-85.1 -70,-123.35 -95.09,-134.33 -2.22,-0.97 -1.56,-4.25 0.86,-4.38 17.03,-0.94 29.2,1.59 29.2,1.59 -65.52,-46.09 -160.71,-40.26 -198.51,-35.65 -4.44,0.54 -6.49,-5.38 -2.66,-7.7 27.98,-16.98 66.17,-23.09 66.17,-23.09 -163.88,3.09 -232.27,71.3 -251.42,95.49 -1.72,2.17 -5.25,0.53 -4.68,-2.18 5.68,-26.9 27.81,-58.68 27.81,-58.68 -64.49,32.51 -68.69,94.94 -66.56,125.02 -22.33,18.73 -50.06,55.57 -42.11,112.22 18.38,131.04 28.69,126.77 28.69,126.77 0,0 30.96,-5.66 35.34,52.3 0,0 4.6,-127.7 8.84,-146.08 29.95,-35.87 53.49,-96.8 53.49,-96.8 0,0 219.6,-66.96 293.95,57.21 28.44,47.5 21.15,171.53 21.15,171.53 0,0 10.21,-45.07 39.03,-42.12 0,0 17.61,-88.27 19.39,-155.66 13.12,13.37 14.5,25.31 14.5,25.31 9.5,-39.57 1.28,-73.11 -3.5,-87.57 -0.63,-1.91 1.81,-3.35 3.17,-1.87 9.61,10.39 22.94,28.66 22.94,28.66z"/>
   <polygon class="fil4" points="483.29,917.62 468.84,917.62 481.95,929.81 "/>
   <path class="fil5" d="M986.94 1023.23l-223.32 -63.79 -102.45 154.66 -59.69 -75.39 -1.15 0.64 -1.6 -1.05 0.44 0.41 -59.69 75.39 -101.11 -152.65 -245.43 67.79c104.42,93.64 242.4,150.63 393.7,150.63l0 0c154.51,0 295.12,-59.43 400.3,-156.64z"/>
   <path class="fil6" d="M691.2 850.17c-1.58,1.52 -3.14,2.96 -4.67,4.31 1.53,-1.35 3.09,-2.79 4.67,-4.31z"/>
   <path class="fil6" d="M490.29 857.38c-0.11,-0.09 -0.24,-0.17 -0.36,-0.26l-1.04 9.46 1.33 -9.25c0.02,0.02 0.04,0.03 0.07,0.05z"/>
   <path class="fil6" d="M710.86 871.66l-5.05 -37.31c-4.92,5.9 -9.8,11.18 -14.51,15.72 4.69,-4.54 9.57,-9.8 14.47,-15.68l5.09 37.27z"/>
   <path class="fil6" d="M598.73 1038.31l1.6 1.05 1.15 -0.64 117.21 -108.89 -1.59 -12.15 -6.2 -45.8c-14.75,19.28 -84.67,58.47 -114.59,58.77 -28.86,0.29 -103.29,-50.22 -108.53,-53.8l-4.48 40.78 -1.34 12.18 116.78 108.5z"/>
   <polygon class="fil7" points="599.17,1038.71 598.73,1038.31 481.95,929.81 468.84,917.62 436.8,959.09 438.37,961.46 539.48,1114.11 "/>
   <polygon class="fil7" points="718.79,930.64 718.69,929.82 601.48,1038.71 661.17,1114.11 763.62,959.44 763.85,959.09 731.81,917.63 "/>
   <polygon class="fil4" points="718.79,930.64 731.81,917.63 731.81,917.62 717.09,917.62 717.09,917.68 718.69,929.82 "/>
   <path class="fil8" d="M596.3 930.64c29.92,-0.3 99.85,-39.5 114.59,-58.77l0 0 -0.03 -0.21 -5.09 -37.27c-4.91,5.88 -9.78,11.14 -14.47,15.68 -0.03,0.03 -0.07,0.07 -0.1,0.1 -1.58,1.52 -3.14,2.96 -4.67,4.31 -32.04,28.27 -99.89,28.27 -99.89,28.27 0,0 -63.12,-0.01 -96.35,-25.38 -0.02,-0.02 -0.04,-0.03 -0.07,-0.05l-1.33 9.25 -1.45 10.05c0,0 0.12,0.09 0.32,0.22 5.24,3.58 79.67,54.08 108.53,53.8z"/>
  </g>
 </g>
</svg>
