<?xml version="1.0" encoding="UTF-8"?>
<!DOCTYPE svg PUBLIC "-//W3C//DTD SVG 1.1//EN" "http://www.w3.org/Graphics/SVG/1.1/DTD/svg11.dtd">
<!-- Creator: CorelDRAW 2019 (64-Bit) -->
<svg xmlns="http://www.w3.org/2000/svg" xml:space="preserve" width="144.835mm" height="144.835mm" version="1.1" style="shape-rendering:geometricPrecision; text-rendering:geometricPrecision; image-rendering:optimizeQuality; fill-rule:evenodd; clip-rule:evenodd"
viewBox="0 0 1179.88 1179.88"
 xmlns:xlink="http://www.w3.org/1999/xlink"
 xmlns:xodm="http://www.corel.com/coreldraw/odm/2003">
 <defs>
  <style type="text/css">
   <![CDATA[
    .fil5 {fill:#3B2313;fill-rule:nonzero}
    .fil12 {fill:#3F3F41;fill-rule:nonzero}
    .fil1 {fill:#465E6E;fill-rule:nonzero}
    .fil8 {fill:#508AD1;fill-rule:nonzero}
    .fil3 {fill:#5491DB;fill-rule:nonzero}
    .fil6 {fill:#603813;fill-rule:nonzero}
    .fil0 {fill:#69DDD4;fill-rule:nonzero}
    .fil11 {fill:#854242;fill-rule:nonzero}
    .fil10 {fill:#CDCFD1;fill-rule:nonzero}
    .fil13 {fill:#DFA389;fill-rule:nonzero}
    .fil2 {fill:#E2E2E2;fill-rule:nonzero}
    .fil4 {fill:#EDBFAA;fill-rule:nonzero}
    .fil7 {fill:#EFEFEF;fill-rule:nonzero}
    .fil9 {fill:#F2C3AE;fill-rule:nonzero}
   ]]>
  </style>
 </defs>
 <g id="Layer_x0020_1">
  <metadata id="CorelCorpID_0Corel-Layer"/>
  <g id="_2513633926720">
   <path class="fil0" d="M1123.34 589.94c0,-294.12 -239.28,-533.4 -533.4,-533.4 -294.11,0 -533.4,239.28 -533.4,533.4 0,294.12 239.28,533.4 533.4,533.4 294.12,0 533.4,-239.28 533.4,-533.4z"/>
   <path class="fil1" d="M589.94 0c-325.81,0 -589.94,264.13 -589.94,589.94l0 0c0,325.81 264.13,589.94 589.94,589.94 325.82,0 589.94,-264.12 589.94,-589.94l0 -0c0,-325.81 -264.13,-589.94 -589.94,-589.94zm-533.4 589.94l0 0c0,-294.11 239.28,-533.4 533.4,-533.4 294.12,0 533.4,239.28 533.4,533.4 0,294.12 -239.28,533.4 -533.4,533.4 -294.11,0 -533.4,-239.28 -533.4,-533.4z"/>
   <path class="fil2" d="M649.19 1063.31l3.92 5.72 -38.44 52.67 11.72 57.03c21.62,-1.32 42.91,-3.79 63.84,-7.38l10.68 -32.71 -51.72 -75.33z"/>
   <path class="fil2" d="M535.4 1068.19l15.07 -21.95 -63.44 92.4 11.14 34.12c18.49,2.89 37.26,4.89 56.27,6.03l16.42 -57.1c-11.82,-17.84 -23.64,-35.67 -35.46,-53.51z"/>
   <path class="fil3" d="M593 1116.51c-10.41,-0.05 -18.27,3.24 -22.15,5.18l-16.42 57.1c11.75,0.7 23.58,1.09 35.51,1.09l0 0c12.25,0 24.39,-0.42 36.46,-1.15l-11.72 -57.03c-3.86,-1.94 -11.52,-5.14 -21.67,-5.18z"/>
   <path class="fil4" d="M623.44 1025.8l89.05 -89.05 -7.95 -58.72c-14.75,19.28 -84.67,58.47 -114.59,58.77 -28.86,0.29 -103.29,-50.21 -108.53,-53.8l-5.91 53.8 88.99 88.99 58.95 0z"/>
   <polygon class="fil4" points="564.5,1025.8 554.59,1040.23 "/>
   <path class="fil5" d="M433.27 1134.89l-84.81 -36.75 40.55 -121.64 -190.01 55.2c56.28,49.85 122.16,89.09 194.51,114.65l39.77 -11.45z"/>
   <path class="fil6" d="M462.48 923.79l-69.74 41.47 -3.75 11.24 -40.55 121.64 84.81 36.75 -39.77 11.45c33.6,11.86 68.59,20.78 104.67,26.43l-67.72 -207.51 32.04 -41.47z"/>
   <polygon class="fil7" points="487.03,1138.64 550.47,1046.24 554.59,1040.23 564.5,1025.8 475.5,936.81 462.48,923.79 430.44,965.26 "/>
   <path class="fil5" d="M982.89 1029.93l-183.94 -53.43 40.55 121.64 -84.82 36.75 35.34 10.17c71.78,-25.88 137.09,-65.28 192.87,-115.13z"/>
   <path class="fil6" d="M754.67 1134.89l84.82 -36.75 -40.55 -121.64 -3.75 -11.24 -69.74 -41.47 32.04 41.47 -67.26 206.1c34.36,-5.88 67.72,-14.73 99.78,-26.29l-35.34 -10.17z"/>
   <polygon class="fil7" points="623.45,1025.8 649.19,1063.31 700.91,1138.64 757.5,965.26 725.46,923.79 712.49,936.76 623.44,1025.8 "/>
   <path class="fil8" d="M623.45 1025.8l-0 0 -58.95 0 -9.9 14.42 -4.13 6.01 -15.07 21.95c11.82,17.84 23.64,35.67 35.46,53.51 3.88,-1.94 11.73,-5.23 22.15,-5.18 10.15,0.05 17.81,3.25 21.67,5.18l38.44 -52.67 -3.92 -5.72 -25.75 -37.51z"/>
   <path class="fil9" d="M780.78 560.02c0,0 13.43,-263.87 -200.5,-262.93 -213.92,-0.94 -200.5,262.93 -200.5,262.93 -24.74,-1.41 -52.3,-2.12 -46.65,65.03 5.65,67.15 68.09,73.51 68.09,73.51 3.77,67.85 47.12,133.82 79.16,162.09 32.04,28.27 99.9,28.27 99.9,28.27 0,0 67.85,0 99.89,-28.27 32.04,-28.27 75.39,-94.24 79.16,-162.09 0,0 62.43,-6.36 68.09,-73.51 5.66,-67.15 -21.91,-66.44 -46.65,-65.03z"/>
   <polygon class="fil10" points="462.48,923.79 476.93,923.79 475.5,936.81 "/>
   <polygon class="fil10" points="725.46,923.79 710.73,923.79 712.44,936.81 "/>
   <path class="fil11" d="M818.28 342.34c-21.5,-44.35 -242.32,-143.62 -364.85,-56.12 -3.8,-17.27 -13.84,-32.2 -29.99,-43.3 11.76,13 17.09,28 16.18,43.68 -9.84,-12.21 -28.74,-17.16 -44.23,-15.55 16.82,3.43 29.83,14.65 28.62,31.46 -28.85,4.46 -102.62,26.24 -87.77,132.15 18.38,131.04 25.44,125.39 25.44,125.39 0,0 19.79,15.55 28.27,57.96 0,0 9.9,-120.16 14.14,-138.53 4.24,-18.38 41,-73.51 41,-73.51 0,0 149.84,120.15 247.38,106.02 0,0 38.17,-7.07 66.44,-32.51l8.48 124.4c0,0 10.21,-45.07 39.03,-42.12 0,0 34.48,-172.75 11.86,-219.4z"/>
   <path class="fil12" d="M579.31 759.12c-5.14,0.57 -13.7,-0.88 -14.82,-0.96 -6.19,-0.41 -12.45,0.5 -17.9,3.01 -4.13,1.91 -7.03,4.52 -10.54,7.02 -17.28,12.28 -35.99,9.62 -42.76,1.31 -5.49,-6.73 20.34,0.1 30.3,-14.99 -0.51,0.55 -0.12,0.13 -0.23,0.25 6.08,-8.71 14.45,-15.65 25.47,-20.05 8.36,-3.34 20,-6.22 30.42,-6.11 5.46,0.06 10.01,3.53 10.8,8.02 1.46,8.29 1.66,21.13 -10.73,22.5z"/>
   <path class="fil12" d="M593.71 759.12c5.14,0.57 13.7,-0.88 14.82,-0.96 6.19,-0.41 12.45,0.5 17.9,3.01 4.13,1.91 7.03,4.52 10.54,7.02 17.28,12.28 35.99,9.62 42.76,1.31 5.49,-6.73 -20.34,0.1 -30.3,-14.99 0.51,0.55 0.12,0.13 0.23,0.25 -6.08,-8.71 -14.44,-15.65 -25.47,-20.05 -8.36,-3.34 -20,-6.22 -30.42,-6.11 -5.46,0.06 -10.01,3.53 -10.8,8.02 -1.47,8.29 -1.66,21.13 10.73,22.5z"/>
   <path class="fil13" d="M680.18 860.65c-32.04,28.27 -99.89,28.27 -99.89,28.27 0,0 -63.2,-0.01 -96.41,-25.43l-1.33 9.25 -1.45 10.06c0,0 0.12,0.08 0.32,0.22 5.24,3.58 79.67,54.08 108.53,53.8 29.92,-0.3 99.85,-39.49 114.59,-58.77l-5.12 -37.48c-6.59,7.9 -13.12,14.69 -19.24,20.09z"/>
  </g>
 </g>
</svg>
