<?xml version="1.0" encoding="UTF-8"?>
<!DOCTYPE svg PUBLIC "-//W3C//DTD SVG 1.1//EN" "http://www.w3.org/Graphics/SVG/1.1/DTD/svg11.dtd">
<!-- Creator: CorelDRAW 2019 (64-Bit) -->
<svg xmlns="http://www.w3.org/2000/svg" xml:space="preserve" width="144.835mm" height="144.835mm" version="1.1" style="shape-rendering:geometricPrecision; text-rendering:geometricPrecision; image-rendering:optimizeQuality; fill-rule:evenodd; clip-rule:evenodd"
viewBox="0 0 628.03 628.03"
 xmlns:xlink="http://www.w3.org/1999/xlink"
 xmlns:xodm="http://www.corel.com/coreldraw/odm/2003">
 <defs>
  <style type="text/css">
   <![CDATA[
    .fil4 {fill:#313131;fill-rule:nonzero}
    .fil3 {fill:#44443F;fill-rule:nonzero}
    .fil1 {fill:#465E6E;fill-rule:nonzero}
    .fil9 {fill:#CDCFD1;fill-rule:nonzero}
    .fil10 {fill:#D16985;fill-rule:nonzero}
    .fil7 {fill:#DB6489;fill-rule:nonzero}
    .fil0 {fill:#DD5D60;fill-rule:nonzero}
    .fil11 {fill:#DFA389;fill-rule:nonzero}
    .fil5 {fill:#E6C682;fill-rule:nonzero}
    .fil6 {fill:#EDBFAA;fill-rule:nonzero}
    .fil8 {fill:#EFE2B8;fill-rule:nonzero}
    .fil2 {fill:#F2C3AE;fill-rule:nonzero}
   ]]>
  </style>
 </defs>
 <g id="Layer_x0020_1">
  <metadata id="CorelCorpID_0Corel-Layer"/>
  <g id="_2513633947168">
   <path class="fil0" d="M314.01 30.1c-156.55,0 -283.92,127.36 -283.92,283.92 0,156.55 127.36,283.92 283.92,283.92 156.55,0 283.92,-127.36 283.92,-283.92 0,-156.55 -127.36,-283.92 -283.92,-283.92z"/>
   <path class="fil1" d="M314.01 0l-0 0c-173.43,0 -314.01,140.59 -314.01,314.01 0,173.43 140.59,314.01 314.01,314.01l0 0c173.42,0 314.01,-140.59 314.01,-314.01 0,-173.43 -140.59,-314.01 -314.01,-314.01zm-0 597.93l0 0c-156.55,0 -283.92,-127.36 -283.92,-283.92 0,-156.55 127.36,-283.92 283.92,-283.92 156.55,0 283.92,127.36 283.92,283.92 0,156.55 -127.36,283.92 -283.92,283.92z"/>
   <path class="fil2" d="M413.3 294.81c0,0 7.15,-140.45 -106.72,-139.95 -113.87,-0.5 -106.72,139.95 -106.72,139.95 -13.17,-0.75 -27.84,-1.13 -24.83,34.61 3.01,35.74 36.24,39.13 36.24,39.13 2.01,36.12 25.08,71.23 42.14,86.28 17.06,15.05 53.17,15.05 53.17,15.05 0,0 36.12,0 53.17,-15.05 17.06,-15.05 40.13,-50.16 42.14,-86.28 0,0 33.23,-3.39 36.24,-39.13 3.01,-35.74 -11.66,-35.36 -24.83,-34.61z"/>
   <path class="fil3" d="M375.85 147.68c0.28,-0.77 0.58,-1.54 0.92,-2.28 3.16,-6.89 8.41,-10.21 15.56,-11.87 -4.11,-0.37 -7.79,-0.36 -11.74,1.1 -4,1.48 -7.55,4.42 -10.31,7.63 -13.69,-25.05 -55.37,-30.35 -89.31,-23.66 -112.49,22.2 -106.91,108.64 -82.97,176.1 2.07,0.9 6.76,1.92 8.33,5.2 3.25,6.58 4.51,4.46 4.5,4.47 -0,-0.01 0.35,-32.34 0.39,-41.33 -0.14,-10.24 7.48,-56.1 34.38,-66.94 4.12,-1.66 8.66,-1.61 13.45,-0.58 -7.03,16.39 -2.27,30.56 0.85,38.18 7.31,17.76 18.22,18.98 18.22,18.98 0,0 -2.98,-2.62 5.8,-17.51 5.28,-8.99 36.03,-17.19 54.11,-18.59 19.63,-1.53 31.41,-7.03 38.23,-13.55 1.39,0.82 2.59,1.87 3.55,3.23 9.01,12.68 26.11,46.54 25.96,56.78 0.05,8.99 0.38,41.32 0.37,41.32 -0,-0.02 1.26,2.12 4.52,-4.46 1.58,-3.27 3.93,-4.58 6,-5.49 11.99,-44.23 36.92,-127.74 -40.81,-146.74z"/>
   <path class="fil4" d="M409.21 299.14c-0.67,-4.78 -2.64,-2.1 -7.73,-2.25 -0.04,-0.12 -0.08,-0.24 -0.13,-0.36 -6.36,-16.88 -32.03,-18.72 -37.11,-18.92 -14.8,-0.58 -26.11,3.16 -33.51,11.06 -2.2,2.35 -4.03,5.11 -5.41,8.1l-0.27 -5.67 -0.31 -0.33c-0.15,-0.23 -3.82,-6.94 -17.24,-6.94 -12.71,0 -16.73,6.71 -16.88,6.94l-0.05 0.33 -0.24 5.53c-1.37,-2.94 -3.18,-5.65 -5.35,-7.97 -7.39,-7.9 -18.7,-11.66 -33.51,-11.08 -5.08,0.2 -30.75,2.01 -37.11,18.88 -0.05,0.14 -0.1,0.29 -0.15,0.44 -5.07,0.15 -7.03,-2.51 -7.71,2.25 -0.61,4.31 2.81,4.63 5.94,4.6 -2.42,14.51 1.78,32.84 13.5,41.85 6.82,5.25 15.33,7.62 24.6,7.62 0,0 0,0 0,0 8.37,0 16.75,-1.92 23.61,-6.13 13.37,-8.2 19.78,-25.31 19.21,-38.25 -0.08,-1.71 -0.3,-3.36 -0.64,-5.03l0.11 0.04 0.33 -11.77c0.89,-0.92 5.14,-4.06 14.32,-4.06 9.89,0 13.78,3.16 14.68,4.08l0.69 11.78 0.12 -0c-0.35,1.68 -0.57,3.38 -0.64,5.1 -0.57,12.94 5.84,30.32 19.21,38.52 6.86,4.21 15.24,6.52 23.61,6.52 9.27,0 17.78,-2.77 24.6,-8.02 11.74,-9.03 15.94,-27.72 13.48,-42.25 3.14,0.03 6.57,-0.28 5.96,-4.6zm-136.51 45.94l0 0c-6.42,3.94 -14.28,6.1 -22.13,6.1 -8.65,0 -16.56,-2.57 -22.88,-7.43 -6,-4.62 -10.31,-12.41 -12.12,-21.94 -1.62,-8.5 -1.07,-17.57 1.46,-24.29 2.13,-5.65 7.09,-10.07 14.74,-13.12 8.03,-3.2 16.54,-3.85 19.83,-3.97 0.94,-0.04 1.89,-0.06 2.8,-0.06 33.22,0 35.95,23.92 36.17,28.72 0.53,12.11 -5.43,28.36 -17.87,35.99zm127.47 -23.27l0 0c-1.81,9.53 -6.12,17.32 -12.12,21.94 -6.32,4.86 -14.23,7.43 -22.88,7.43 -7.86,0 -15.72,-2.17 -22.13,-6.1 -12.44,-7.63 -18.4,-23.88 -17.87,-35.99 0.21,-4.8 2.95,-28.72 36.17,-28.72 0.91,0 1.86,0.02 2.8,0.06 3.29,0.13 11.81,0.77 19.83,3.97 7.65,3.05 12.61,7.47 14.74,13.12 2.53,6.71 3.07,15.79 1.46,24.29z"/>
   <path class="fil5" d="M525.34 546.28l-124.5 -35.56 -30.05 92.09 -34.59 -50.38 9.15 13.33 -20.46 28.03 6.93 33.74c74.37,-4.16 141.83,-34.18 193.52,-81.24z"/>
   <path class="fil5" d="M282.68 565.3l10.22 -14.88 -35.96 52.38 -29.67 -90.92 -124.57 34.41c50.7,46.15 116.56,75.91 189.24,80.96l9.63 -33.47c-6.29,-9.49 -12.58,-18.99 -18.87,-28.48z"/>
   <path class="fil6" d="M255.27 456.35c-0.05,-0.04 -0.11,-0.08 -0.17,-0.12l-0.55 5.03 0.71 -4.92c0,0 0.01,0.01 0.01,0.01z"/>
   <path class="fil6" d="M362.23 452.53c-0.84,0.81 -1.67,1.58 -2.49,2.3 0.82,-0.72 1.65,-1.49 2.49,-2.3z"/>
   <path class="fil6" d="M364.87 449.88c0.83,-0.87 1.67,-1.77 2.51,-2.72 -0.84,0.95 -1.68,1.85 -2.51,2.72z"/>
   <path class="fil6" d="M362.3 452.47c0.82,-0.79 1.65,-1.62 2.48,-2.5 -0.84,0.87 -1.67,1.7 -2.48,2.5z"/>
   <polygon class="fil6" points="336.19,552.42 329.55,542.74 "/>
   <polygon class="fil6" points="292.9,550.42 298.17,542.74 "/>
   <path class="fil6" d="M298.17 542.74l31.38 0 47.4 -47.4 -0.03 0.03 -0.91 -6.92 -6 -44.34c-0.82,0.98 -1.63,1.92 -2.44,2.83 0.8,-0.91 1.61,-1.84 2.42,-2.81l2.72 19.95c-7.85,10.26 -45.07,31.12 -61,31.28 -15.36,0.15 -54.98,-26.73 -57.77,-28.64l-3.15 28.64 47.37 47.37z"/>
   <path class="fil7" d="M313.35 591.02c-5.54,-0.03 -9.72,1.72 -11.79,2.76l-9.63 33.47c7.3,0.51 14.66,0.78 22.08,0.78l0 0c5.98,0 11.91,-0.18 17.8,-0.51l-6.93 -33.74c-2.06,-1.03 -6.13,-2.73 -11.54,-2.76z"/>
   <polygon class="fil8" points="292.9,550.42 298.17,542.74 250.8,495.37 243.87,488.44 226.82,510.51 227.26,511.88 256.94,602.8 "/>
   <polygon class="fil9" points="251.56,488.44 243.87,488.44 250.8,495.37 "/>
   <polygon class="fil8" points="329.55,542.74 336.19,552.42 370.78,602.8 400.84,510.71 400.91,510.51 383.85,488.44 376.95,495.34 "/>
   <polygon class="fil9" points="376.95,495.34 383.85,488.44 376.01,488.44 376.01,488.45 376.92,495.37 "/>
   <path class="fil10" d="M298.17 542.74l-5.27 7.68 -10.22 14.88c6.29,9.49 12.58,18.99 18.87,28.48 2.07,-1.04 6.25,-2.79 11.79,-2.76 5.4,0.03 9.48,1.73 11.54,2.76l20.46 -28.03 -9.15 -13.33 -6.64 -9.68 -31.38 0z"/>
   <path class="fil11" d="M311.72 495.37c15.93,-0.16 53.15,-21.02 61,-31.28l-2.72 -19.95c-0.81,0.97 -1.62,1.9 -2.42,2.81 -0.06,0.07 -0.13,0.15 -0.19,0.22 -0.84,0.95 -1.68,1.85 -2.51,2.72 -0.03,0.03 -0.06,0.06 -0.09,0.09 -0.84,0.87 -1.67,1.7 -2.48,2.5 -0.02,0.02 -0.04,0.05 -0.07,0.07 -0.84,0.81 -1.67,1.58 -2.49,2.3 -17.05,15.05 -53.17,15.05 -53.17,15.05 0,0 -33.63,-0 -51.31,-13.53 -0,-0 -0.01,-0.01 -0.01,-0.01l-0.71 4.92 -0.77 5.35c0,0 0.07,0.05 0.17,0.11 2.79,1.91 42.41,28.79 57.77,28.64z"/>
  </g>
 </g>
</svg>
