<?xml version="1.0" encoding="UTF-8"?>
<!DOCTYPE svg PUBLIC "-//W3C//DTD SVG 1.1//EN" "http://www.w3.org/Graphics/SVG/1.1/DTD/svg11.dtd">
<!-- Creator: CorelDRAW 2019 (64-Bit) -->
<svg xmlns="http://www.w3.org/2000/svg" xml:space="preserve" width="21.782mm" height="21.8006mm" version="1.1" style="shape-rendering:geometricPrecision; text-rendering:geometricPrecision; image-rendering:optimizeQuality; fill-rule:evenodd; clip-rule:evenodd"
viewBox="0 0 55.41 55.46"
 xmlns:xlink="http://www.w3.org/1999/xlink"
 xmlns:xodm="http://www.corel.com/coreldraw/odm/2003">
 <defs>
  <style type="text/css">
   <![CDATA[
    .fil0 {fill:#3CBA48}
   ]]>
  </style>
 </defs>
 <g id="Layer_x0020_1">
  <metadata id="CorelCorpID_0Corel-Layer"/>
  <g id="_2482698653600">
   <path class="fil0" d="M4.68 27.77c0,-3.64 0.88,-6.95 2.02,-9.49 3.63,-8.1 11.8,-13.53 21.01,-13.53 5.12,0 9.16,1.49 13.03,4.06l3.2 2.61c1.89,1.93 3.59,4.34 4.71,6.81 3.44,7.58 2.53,15.87 -2,22.68 -3.7,5.57 -10.8,9.9 -19.06,9.9 -3.26,0 -7.15,-0.95 -9.34,-2.06 -2.74,-1.38 -2.59,-1.22 -5.26,-3.28l-2.92 -2.9c-0.45,-0.58 -0.85,-1.03 -1.24,-1.61 -0.38,-0.58 -0.75,-1.1 -1.1,-1.74 -1.87,-3.37 -3.05,-6.93 -3.05,-11.43zm22.67 -27.66c-0.21,0.05 -1.35,-0.01 -1.67,-0 -1.16,0.03 -3.46,0.46 -4.51,0.71 -1.79,0.44 -3.67,1.06 -5.18,1.82 -1.98,1 -2.26,1.07 -4.36,2.52 -6.82,4.71 -10.42,11.65 -11.5,19.84 -0.2,1.55 -0.13,3.4 -0.09,4.91 0.1,3.54 1.93,8.91 3.75,11.92 3.03,5.02 7.48,9.12 12.94,11.39 2.18,0.91 2.99,1.14 5.32,1.68 2.68,0.62 6.77,0.7 9.28,0.35 1.04,-0.14 1.98,-0.32 2.9,-0.54 5.15,-1.26 9.59,-3.84 13.32,-7.57 3.5,-3.5 6.27,-8.61 7.26,-13.63 1.56,-7.9 0.02,-15.13 -4.46,-21.75 -3.72,-5.49 -10.34,-9.81 -16.8,-11.09 -1.69,-0.33 -2.84,-0.54 -4.66,-0.56 -1.15,-0.01 -0.51,-0.25 -1.54,-0z"/>
   <path class="fil0" d="M14.06 18.63c0,3 1.4,3.19 2.22,4.19l4.9 4.95c-0.78,1.16 -6.38,6.07 -6.93,7.2 -0.61,1.25 -0.5,2.39 0.04,3.61 0.29,0.66 0.54,0.96 1.04,1.45 1.8,1.8 4.58,2.16 6.41,0.3l6.08 -6.03c0.55,0.82 3.36,3.31 4.03,4.16l2.5 2.48c1.29,1.24 3.39,1.09 4.88,0.15 0.56,-0.35 1.31,-1.1 1.66,-1.66 0.21,-0.34 0.44,-0.77 0.55,-1.12 0.34,-1.09 0.32,-2.05 -0.1,-3.07 -0.55,-1.32 -6.2,-6.09 -7.12,-7.48 0.5,-0.33 5.21,-5.16 6.08,-6.02 3.65,-3.6 -1.21,-9.14 -5.29,-7.43 -1.51,0.63 -5.81,5.91 -7.32,6.92 -0.41,-0.27 -0.65,-0.7 -1.45,-1.4l-4.51 -4.51c-0.78,-0.79 -1.38,-1.34 -2.82,-1.34 -1.53,0 -2.52,0.68 -3.31,1.44 -0.86,0.82 -1.55,1.92 -1.55,3.19z"/>
  </g>
 </g>
</svg>
